<?xml version="1.0" encoding="utf-8"?>
<!-- Generator: Adobe Illustrator 16.0.0, SVG Export Plug-In . SVG Version: 6.00 Build 0)  -->
<!DOCTYPE svg PUBLIC "-//W3C//DTD SVG 1.1//EN" "http://www.w3.org/Graphics/SVG/1.1/DTD/svg11.dtd">
<svg version="1.1" id="Layer_1" xmlns="http://www.w3.org/2000/svg" xmlns:xlink="http://www.w3.org/1999/xlink" x="0px" y="0px"
	 width="144px" height="144px" viewBox="0 0 144 144" enable-background="new 0 0 144 144" xml:space="preserve">
<g>
	<path fill-rule="evenodd" clip-rule="evenodd" d="M54.016,78.432c17.857,0.891,24.409,11.744,25.775,28.267
		c3.394-9.627-1.356-17.962-15.582-28.854c8.24-3.219,11.139-6.488,10.377-11.706c-0.758-5.184-4.059-7.723-11.6-8.591
		c0-12.052-0.171-24.172,0.099-36.283c0.087-3.923,3.145-5.87,6.923-5.572c4.09,0.323,6.135,2.935,6.128,7.089
		c-0.019,12.328-0.034,24.656-0.019,36.985c0.002,1.681,0.186,3.36,0.284,5.04c0.429,0.003,0.856,0.006,1.284,0.008
		c0.113-1.514,0.319-3.027,0.324-4.54c0.029-10.663-0.006-21.325,0.029-31.988c0.018-5.497,2.133-8.17,6.418-8.304
		c4.502-0.141,6.757,2.596,6.777,8.415c0.035,10.496,0.01,20.992,0.01,31.488c0,1.591,0,3.181,0,4.771
		c0.451,0.045,0.902,0.089,1.353,0.133c0.169-1.086,0.478-2.171,0.482-3.258c0.04-9.662-0.003-19.326,0.038-28.988
		c0.02-5.047,2.589-8.274,6.541-8.406c4.047-0.135,6.808,2.904,6.824,8.062c0.068,21.991,0.002,43.983,0.033,65.976
		c0.008,5.483-2.998,8.165-8.541,9.167c0,6.867,0,13.779,0,20.998c-14.074,0-27.643,0-41.623,0c0-7.018,0-13.782,0-21.016
		c-5.947,0.221-7.676-3.355-8.766-8.194c-1.751-7.771-4.141-15.397-6.182-23.104c-1.859-7.019-0.008-10.253,6.973-12.213
		c4.953-1.391,9.904-2.819,14.925-3.923c4.633-1.018,8.481,1.508,9.503,5.809c0.904,3.814-1.568,7.898-5.814,9.191
		C62.703,76.192,58.344,77.261,54.016,78.432z"/>
	<path fill-rule="evenodd" clip-rule="evenodd" d="M61.034,58.501c-4.473,1.197-8.453,2.262-13.333,3.568c0-2.269,0-4.152,0-6.035
		c0.006-9.491-0.063-18.984,0.046-28.475c0.058-5.026,2.461-7.603,6.628-7.576c4.134,0.027,6.604,2.733,6.638,7.614
		C61.084,37.741,61.034,47.886,61.034,58.501z"/>
</g>
</svg>
