<?xml version="1.0" encoding="utf-8"?>
<!-- Generator: Adobe Illustrator 16.0.0, SVG Export Plug-In . SVG Version: 6.00 Build 0)  -->
<!DOCTYPE svg PUBLIC "-//W3C//DTD SVG 1.1//EN" "http://www.w3.org/Graphics/SVG/1.1/DTD/svg11.dtd">
<svg version="1.1" id="Layer_1" xmlns="http://www.w3.org/2000/svg" xmlns:xlink="http://www.w3.org/1999/xlink" x="0px" y="0px"
	 width="144px" height="144px" viewBox="0 0 144 144" enable-background="new 0 0 144 144" xml:space="preserve">
<g>
	<path fill-rule="evenodd" clip-rule="evenodd" d="M56.239,106.684c-5.401,0.396-7.299-2.328-8.335-6.616
		c-1.989-8.233-4.422-16.357-6.57-24.554c-1.822-6.954,0.091-10.17,7.125-12.15c4.632-1.305,9.267-2.621,13.951-3.717
		c5.265-1.232,9.386,1.172,10.39,5.804c0.867,4.003-1.801,7.835-6.479,9.186c-4.066,1.175-8.154,2.274-12.166,3.639
		c17.417,0.812,24.48,11.316,25.691,27.478c2.545-7.787,0.053-13.696-10.164-25.244c2.068-0.871,4.111-1.732,6.154-2.594
		c4.992,7.651,8.402,8.475,15.34,3.712c6.482,5.89,6.734,5.948,14.74,3.381c1.436,16.845,1.096,19.797-7.918,22.043
		c0,6.704,0,13.501,0,20.77c-14.01,0-27.684,0-41.76,0C56.239,120.852,56.239,114.074,56.239,106.684z"/>
	<path fill-rule="evenodd" clip-rule="evenodd" d="M77.989,66.433c0.004-3.166-0.082-6.335,0.025-9.497
		c0.143-4.261,2.992-7.407,6.678-7.133c4.047,0.303,6.439,2.637,6.496,6.797c0.09,6.496,0.076,12.996-0.045,19.492
		c-0.078,4.204-2.482,6.541-6.615,6.502c-4.158-0.041-6.355-2.556-6.52-6.666C77.884,72.768,77.985,69.598,77.989,66.433z"/>
	<path fill-rule="evenodd" clip-rule="evenodd" d="M106.401,68.258c0,3.33,0.164,6.671-0.041,9.988
		c-0.25,4.057-2.412,6.523-6.684,6.465c-4.268-0.059-6.428-2.633-6.547-6.639c-0.195-6.49-0.188-12.994,0.002-19.484
		c0.119-4.137,2.783-6.568,6.727-6.578c3.73-0.011,6.23,2.321,6.459,6.26c0.193,3.319,0.039,6.658,0.039,9.988
		C106.372,68.258,106.388,68.258,106.401,68.258z"/>
	<path fill-rule="evenodd" clip-rule="evenodd" d="M63.104,57.124c-0.556-8.29,1.18-11.421,6.186-11.526
		c4.964-0.105,6.817,2.88,6.778,10.858c-0.023,4.976,0.105,9.956-0.045,14.927c-0.174,5.757-4.432,8.205-10.133,5.58
		c5.586-2.133,9.566-5.352,8.443-11.808C73.458,60.129,70.481,58.077,63.104,57.124z"/>
	<path fill-rule="evenodd" clip-rule="evenodd" d="M47.852,61.641c0.071-4.74-1.847-9.605,2.729-12.608
		c1.681-1.103,5.465-1.378,6.699-0.266c2.229,2.009,3.26,5.345,5.207,8.882C56.712,59.225,52.515,60.369,47.852,61.641z"/>
</g>
</svg>
