<?xml version="1.0" encoding="utf-8"?>
<!-- Generator: Adobe Illustrator 16.0.0, SVG Export Plug-In . SVG Version: 6.00 Build 0)  -->
<!DOCTYPE svg PUBLIC "-//W3C//DTD SVG 1.1//EN" "http://www.w3.org/Graphics/SVG/1.1/DTD/svg11.dtd">
<svg version="1.1" id="Layer_1" xmlns="http://www.w3.org/2000/svg" xmlns:xlink="http://www.w3.org/1999/xlink" x="0px" y="0px"
	 width="144px" height="144px" viewBox="0 0 144 144" enable-background="new 0 0 144 144" xml:space="preserve">
<g>
	<path fill-rule="evenodd" clip-rule="evenodd" d="M97.667,107.68c0,6.891,0,13.527,0,20.609c-13.805,0-27.313,0-41.241,0
		c0-6.929,0-13.709,0-20.869c-6.01,0.261-7.81-3.396-8.932-8.182c-1.894-8.08-4.201-16.063-6.292-24.097
		c-1.538-5.912,0.322-9.371,6.014-10.994c5.106-1.456,10.232-2.861,15.401-4.068c4.898-1.144,8.789,0.992,9.856,5.101
		c1.2,4.617-1.069,8.437-5.983,9.892c-3.973,1.175-7.982,2.227-11.964,3.375c-0.212,0.061-0.313,0.514-0.753,1.297
		c8.057-1.941,13.856,1.67,18.876,6.951c5.027,5.289,6.856,11.896,6.87,19.815c4.006-8.631-1.402-18.115-15.474-28.608
		c8.395-3.122,10.958-5.957,10.451-11.555c-0.46-5.072-3.753-7.618-11.831-8.868c0-11.713-0.141-23.505,0.078-35.29
		c0.075-4.015,2.718-6.561,6.813-6.476c4.392,0.093,6.579,2.983,6.677,7.196c0.151,6.492,0.051,12.989,0.052,19.484
		c0.001,10.324,0.058,20.65-0.034,30.975c-0.036,4.132-0.132,8.751,4.298,10.22c3.283,1.088,7.261,0.083,12.299-0.017
		c4.149,4.345,5.508,4.628,13.271,1.624C106.993,102.451,107.491,104.855,97.667,107.68z"/>
	<path fill-rule="evenodd" clip-rule="evenodd" d="M59.983,58.825c-4.71,1.268-8.654,2.329-12.948,3.484
		c-3.197-11.826-6.416-23.27-9.334-34.788c-1.01-3.987,1.122-6.938,4.928-8.009c3.704-1.041,6.758,0.674,7.813,4.336
		C53.733,35.282,56.728,46.801,59.983,58.825z"/>
	<path fill-rule="evenodd" clip-rule="evenodd" d="M91.397,66.785c0,3.149,0.161,6.31-0.04,9.447
		c-0.253,3.937-2.271,6.619-6.433,6.84c-4.224,0.223-6.724-2.327-6.924-6.235c-0.346-6.775-0.309-13.594,0.018-20.372
		c0.18-3.724,2.674-6.19,6.535-6.173c4.081,0.019,6.407,2.603,6.755,6.553c0.29,3.289,0.06,6.625,0.06,9.94
		C91.378,66.785,91.388,66.785,91.397,66.785z"/>
	<path fill-rule="evenodd" clip-rule="evenodd" d="M106.472,68.644c-0.003,3.329,0.154,6.668-0.043,9.985
		c-0.24,4.047-2.4,6.525-6.639,6.529c-4.257,0.004-6.479-2.467-6.577-6.546c-0.157-6.488-0.104-12.984,0.015-19.474
		c0.076-4.188,2.6-6.687,6.578-6.647c3.916,0.039,6.471,2.488,6.644,6.664C106.581,62.313,106.476,65.48,106.472,68.644z"/>
</g>
</svg>
